<svg width="12" height="11" viewBox="0 0 12 11" fill="none" xmlns="http://www.w3.org/2000/svg">
<path d="M6.40577 2.54513C5.70919 2.54513 5.30421 2.83482 5.30421 3.28385C5.30421 4.65989 10.65 3.58803 10.65 7.28162C10.65 9.25153 8.72228 10.7 5.5958 10.7C2.43692 10.7 0.849379 9.29499 0.800781 7.15126H4.28365C4.33225 7.97688 4.86682 8.45488 5.74159 8.45488C6.61636 8.45488 7.13474 8.1507 7.13474 7.5858C7.13474 6.18078 1.80514 7.09332 1.80514 3.66045C1.80514 1.86435 3.34408 0.300003 6.71355 0.300003C9.53224 0.300003 11.2008 1.61811 11.2008 3.7039H7.73411C7.66932 2.9507 7.31293 2.54513 6.40577 2.54513Z" fill="#FC8A06"/>
</svg>
