<svg width="50" height="50" viewBox="0 0 50 50" fill="none" xmlns="http://www.w3.org/2000/svg">
<path d="M37.5 16.6667C40.9518 16.6667 43.75 13.8685 43.75 10.4167C43.75 6.96489 40.9518 4.16667 37.5 4.16667C34.0482 4.16667 31.25 6.96489 31.25 10.4167C31.25 13.8685 34.0482 16.6667 37.5 16.6667Z" stroke="white" stroke-width="4.16667" stroke-linecap="round" stroke-linejoin="round"/>
<path d="M12.5 31.25C15.9518 31.25 18.75 28.4518 18.75 25C18.75 21.5482 15.9518 18.75 12.5 18.75C9.04822 18.75 6.25 21.5482 6.25 25C6.25 28.4518 9.04822 31.25 12.5 31.25Z" stroke="white" stroke-width="4.16667" stroke-linecap="round" stroke-linejoin="round"/>
<path d="M37.5 45.8333C40.9518 45.8333 43.75 43.0351 43.75 39.5833C43.75 36.1315 40.9518 33.3333 37.5 33.3333C34.0482 33.3333 31.25 36.1315 31.25 39.5833C31.25 43.0351 34.0482 45.8333 37.5 45.8333Z" stroke="white" stroke-width="4.16667" stroke-linecap="round" stroke-linejoin="round"/>
<path d="M17.8945 28.1459L32.1237 36.4375" stroke="white" stroke-width="4.16667" stroke-linecap="round" stroke-linejoin="round"/>
<path d="M32.1029 13.5625L17.8945 21.8542" stroke="white" stroke-width="4.16667" stroke-linecap="round" stroke-linejoin="round"/>
</svg>
