<svg width="20" height="21" viewBox="0 0 20 21" fill="none" xmlns="http://www.w3.org/2000/svg">
<g clip-path="url(#clip0_245_635)">
<path d="M16.875 6.125H4.375C4.20924 6.125 4.05027 6.05915 3.93306 5.94194C3.81585 5.82473 3.75 5.66576 3.75 5.5C3.75 5.33424 3.81585 5.17527 3.93306 5.05806C4.05027 4.94085 4.20924 4.875 4.375 4.875H15C15.1658 4.875 15.3247 4.80915 15.4419 4.69194C15.5592 4.57473 15.625 4.41576 15.625 4.25C15.625 4.08424 15.5592 3.92527 15.4419 3.80806C15.3247 3.69085 15.1658 3.625 15 3.625H4.375C3.87772 3.625 3.40081 3.82254 3.04917 4.17417C2.69754 4.52581 2.5 5.00272 2.5 5.5V15.5C2.5 15.9973 2.69754 16.4742 3.04917 16.8258C3.40081 17.1775 3.87772 17.375 4.375 17.375H16.875C17.2065 17.375 17.5245 17.2433 17.7589 17.0089C17.9933 16.7745 18.125 16.4565 18.125 16.125V7.375C18.125 7.04348 17.9933 6.72554 17.7589 6.49112C17.5245 6.2567 17.2065 6.125 16.875 6.125ZM14.0625 12.375C13.8771 12.375 13.6958 12.32 13.5417 12.217C13.3875 12.114 13.2673 11.9676 13.1964 11.7963C13.1254 11.625 13.1068 11.4365 13.143 11.2546C13.1792 11.0727 13.2685 10.9057 13.3996 10.7746C13.5307 10.6435 13.6977 10.5542 13.8796 10.518C14.0615 10.4818 14.25 10.5004 14.4213 10.5714C14.5926 10.6423 14.739 10.7625 14.842 10.9167C14.945 11.0708 15 11.2521 15 11.4375C15 11.6861 14.9012 11.9246 14.7254 12.1004C14.5496 12.2762 14.3111 12.375 14.0625 12.375Z" fill="#FC8A06"/>
</g>
<defs>
<clipPath id="clip0_245_635">
<rect width="20" height="20" fill="white" transform="translate(0 0.5)"/>
</clipPath>
</defs>
</svg>
